# xmcd
#
# Track frame offsets: 
#        150
#        18233
#        34899
#        50412
#        64279
#        82436
#
# Disc length: 1315 seconds
#
# Revision: 0
# Processed by: cddbd v1.5.2PL0 Copyright (c) Steve Scherf et al.
# Submitted via: ExactAudioCopy v0.99pb5
#
DISCID=50052106
DTITLE=Dayrtip - Daytrip
DYEAR=2012
DGENRE=Soul
TTITLE0=Crazy
TTITLE1=You'll Know Why
TTITLE2=This Kinda Song
TTITLE3=Watch Me
TTITLE4=Alone
TTITLE5=I Don't Wanna Be By Your Side
EXTD=
EXTT0=
EXTT1=
EXTT2=
EXTT3=
EXTT4=
EXTT5=
PLAYORDER=
